<svg width="34" height="34" viewBox="0 0 34 34" fill="none" xmlns="http://www.w3.org/2000/svg">
<path d="M0 8.5C0 7.37283 0.447767 6.29183 1.2448 5.4948C2.04183 4.69777 3.12283 4.25 4.25 4.25H29.75C30.8772 4.25 31.9582 4.69777 32.7552 5.4948C33.5522 6.29183 34 7.37283 34 8.5V19.125H0V8.5ZM24.4375 10.625C24.1557 10.625 23.8855 10.7369 23.6862 10.9362C23.4869 11.1355 23.375 11.4057 23.375 11.6875V13.8125C23.375 14.0943 23.4869 14.3645 23.6862 14.5638C23.8855 14.7631 24.1557 14.875 24.4375 14.875H28.6875C28.9693 14.875 29.2395 14.7631 29.4388 14.5638C29.6381 14.3645 29.75 14.0943 29.75 13.8125V11.6875C29.75 11.4057 29.6381 11.1355 29.4388 10.9362C29.2395 10.7369 28.9693 10.625 28.6875 10.625H24.4375ZM0 23.375V25.5C0 26.6272 0.447767 27.7082 1.2448 28.5052C2.04183 29.3022 3.12283 29.75 4.25 29.75H29.75C30.8772 29.75 31.9582 29.3022 32.7552 28.5052C33.5522 27.7082 34 26.6272 34 25.5V23.375H0Z" fill="#F9AC72"/>
</svg>
