<svg width="32" height="32" viewBox="0 0 32 32" fill="none" xmlns="http://www.w3.org/2000/svg">
<path d="M16.4015 3C22.0789 3 26.6815 6.81133 26.6815 11.5133C26.6815 16.2153 22.0802 19.076 16.4015 19.076C11.0091 18.9671 7.18908 17.2689 4.94153 13.9813C4.86092 13.861 4.80493 13.7258 4.77678 13.5837C4.74864 13.4416 4.74889 13.2953 4.77753 13.1533C6.06242 6.73911 9.93708 3.35467 16.4015 3ZM16.0182 8.296C12.7537 8.62667 10.7562 10.1807 10.0255 12.958C11.0211 13.8358 13.0189 14.3229 16.0189 14.4193C19.0322 14.3727 20.8582 13.4933 20.8935 11.4513C20.7062 9.19533 18.5129 8.21067 16.0182 8.296Z" stroke="#F9AC72" stroke-width="2" stroke-linejoin="round"/>
<path d="M4.26404 16.4733C5.94804 21.3047 10.592 23.9933 15.3667 23.9933C19.3267 23.9933 21.9507 22.28 23.3267 19.6933L27.764 22.4733C26.2174 26.2567 21.632 29 16.2154 29C9.52938 29 3.80404 24.4933 4.26204 16.6593C4.26204 16.5967 4.26271 16.5347 4.26404 16.4733V16.4733Z" stroke="#F9AC72" stroke-width="2" stroke-linejoin="round"/>
</svg>
