<svg width="39" height="39" viewBox="0 0 39 39" fill="none" xmlns="http://www.w3.org/2000/svg">
<path d="M25.3419 29.458L23.8241 25.4288M6.76894 12.7806L10.7689 22.8069C10.9444 23.2451 11.0319 23.7137 11.0263 24.1857C11.0207 24.6578 10.9222 25.1242 10.7363 25.5582C10.5505 25.9921 10.281 26.3853 9.94322 26.7151C9.60543 27.0449 9.20599 27.305 8.76769 27.4804H8.76687C7.8811 27.8325 6.89174 27.8184 6.01638 27.4411C5.14102 27.0638 4.45136 26.3543 4.09906 25.4686L3.65625 24.3588L6.76894 12.7806ZM19.0231 14.2318L24.8601 11.9031L22.1081 21.9659L27.9451 19.6373L19.0231 14.2318ZM26.4217 9.63707L32.2587 7.30844L29.5068 17.3704L35.3438 15.0418L26.4217 9.63707ZM18.5811 19.6568C18.734 20.0401 18.8099 20.4497 18.8045 20.8623C18.7991 21.2749 18.7125 21.6824 18.5496 22.0616C18.3867 22.4407 18.1508 22.784 17.8552 23.072C17.5596 23.3599 17.2102 23.5868 16.8269 23.7396C16.4436 23.8925 16.0339 23.9684 15.6212 23.963C15.2086 23.9575 14.8011 23.8709 14.4219 23.7079C14.0428 23.5449 13.6995 23.3088 13.4116 23.0132C13.1237 22.7175 12.8969 22.368 12.7441 21.9846V21.9846L11.9876 20.0883C11.8347 19.705 11.7588 19.2954 11.7641 18.8828C11.7695 18.4701 11.8562 18.0626 12.0191 17.6835C12.1819 17.3044 12.4179 16.961 12.7135 16.6731C13.0091 16.3852 13.3585 16.1583 13.7418 16.0054V16.0054C14.1251 15.8525 14.5348 15.7766 14.9474 15.7821C15.3601 15.7875 15.7676 15.8742 16.1468 16.0372C16.5259 16.2002 16.8692 16.4362 17.1571 16.7319C17.445 17.0276 17.6718 17.3771 17.8246 17.7604V17.7604L18.5811 19.6568ZM19.7446 22.5753L16.6595 14.8419L19.7446 22.5753ZM28.6366 21.2721L30.9278 27.3544L28.6366 21.2721ZM29.9821 24.8463C29.9068 24.6465 29.8716 24.4339 29.8785 24.2206C29.8855 24.0072 29.9344 23.7974 30.0224 23.6029C30.1105 23.4085 30.236 23.2333 30.3917 23.0874C30.5475 22.9414 30.7305 22.8276 30.9303 22.7524V22.7524C31.13 22.6772 31.3426 22.642 31.5559 22.6489C31.7693 22.6559 31.9791 22.7047 32.1736 22.7928C32.368 22.8808 32.5432 23.0063 32.6891 23.1621C32.8351 23.3179 32.9489 23.5009 33.0241 23.7006L33.969 26.2096L29.9821 24.8463ZM26.8141 28.5155C27.273 28.6548 27.7682 28.6081 28.1929 28.3855L28.5342 28.2563C28.8009 28.1554 29.0166 27.9527 29.1339 27.6928C29.2512 27.4328 29.2605 27.137 29.1598 26.8702V26.8702C29.1101 26.7379 29.0349 26.6168 28.9384 26.5136C28.8419 26.4104 28.726 26.3272 28.5974 26.2688C28.4688 26.2104 28.3299 26.178 28.1887 26.1732C28.0475 26.1685 27.9068 26.1916 27.7745 26.2413L27.092 26.4981C26.825 26.5981 26.5292 26.5881 26.2696 26.4702C26.01 26.3523 25.8078 26.1361 25.7075 25.8692V25.8692C25.6068 25.6024 25.6161 25.3065 25.7334 25.0466C25.8507 24.7867 26.0664 24.584 26.3331 24.4831L26.6744 24.3547C27.099 24.1319 27.5942 24.085 28.0532 24.2239L26.8141 28.5155ZM20.722 30.3233C20.6766 30.6062 20.5573 30.872 20.3761 31.0939C20.1949 31.3158 19.9582 31.4858 19.6901 31.5868V31.5868C19.2868 31.7385 18.8398 31.7239 18.4473 31.546C18.0548 31.3682 17.749 31.0418 17.5971 30.6386L17.225 29.6506C17.1497 29.4509 17.1145 29.2383 17.1214 29.025C17.1282 28.8117 17.1771 28.6019 17.265 28.4074C17.353 28.213 17.4784 28.0378 17.6341 27.8919C17.7898 27.7459 17.9727 27.632 18.1724 27.5568C18.44 27.4558 18.7296 27.4273 19.0117 27.4741C19.2939 27.5209 19.5588 27.6413 19.7795 27.8233L20.722 30.3233ZM24.7691 27.9378C24.9208 28.3411 24.9062 28.7882 24.7284 29.1807C24.5505 29.5731 24.2241 29.879 23.8209 30.0308V30.0308C23.4177 30.1826 22.9707 30.1681 22.5782 29.9904C22.1858 29.8128 21.8799 29.4865 21.7279 29.0834L21.3558 28.0946C21.2803 27.8949 21.245 27.6823 21.2518 27.4689C21.2586 27.2555 21.3074 27.0455 21.3954 26.851C21.4834 26.6565 21.6088 26.4812 21.7646 26.3352C21.9203 26.1892 22.1033 26.0753 22.3031 26C22.7064 25.8483 23.1535 25.8629 23.546 26.0407C23.9385 26.2185 24.2443 26.5449 24.3961 26.9482L24.7691 27.9378Z" stroke="#F9AC72" stroke-width="1.5" stroke-linecap="round" stroke-linejoin="round"/>
</svg>
