<svg width="32" height="32" viewBox="0 0 32 32" fill="none" xmlns="http://www.w3.org/2000/svg">
<path d="M12.6624 17.0832H15.3168C21.0832 17.0832 24.3552 14.4864 25.3968 9.1472C25.4304 8.9712 25.4608 8.8016 25.4864 8.632C25.544 8.2704 25.5728 7.9456 25.5856 7.6336C25.5952 7.4192 25.6016 7.2928 25.6 7.1744C25.5984 6.6026 25.4808 6.03707 25.2544 5.512C25.048 5.0384 24.736 4.5728 24.2736 4.0432C22.9088 2.4912 20.5312 1.6 17.6912 1.6H8.6464C8.33817 1.60037 8.04017 1.71059 7.80587 1.91087C7.57157 2.11115 7.41633 2.38838 7.368 2.6928L5.736 13.2064L3.7056 26.3024C3.68828 26.4133 3.69517 26.5266 3.7258 26.6346C3.75643 26.7426 3.81008 26.8426 3.88305 26.9279C3.95601 27.0132 4.04658 27.0817 4.14852 27.1287C4.25046 27.1756 4.36136 27.2 4.4736 27.2H8.9088L10.2672 19.1312C10.3553 18.5597 10.6454 18.0387 11.0849 17.6629C11.5244 17.2871 12.0841 17.0814 12.6624 17.0832ZM27.2272 9.744C25.96 15.7776 21.856 18.9792 15.3152 18.9792H12.6624C12.5354 18.979 12.4124 19.0244 12.3161 19.1072C12.2198 19.19 12.1564 19.3047 12.1376 19.4304L10.3696 30.4H15.0208C15.2905 30.4002 15.5514 30.3041 15.7564 30.129C15.9615 29.9538 16.0972 29.7112 16.1392 29.4448L16.1856 29.2048L17.0736 23.5824L17.1312 23.272C17.1732 23.0056 17.3089 22.763 17.514 22.5878C17.719 22.4127 17.9799 22.3166 18.2496 22.3168H18.9536C23.5136 22.3168 27.0832 20.464 28.1264 15.1072C28.5552 12.8992 28.3376 11.0528 27.2272 9.744Z" fill="#F9AC72"/>
</svg>
